<svg width="371" height="63" viewBox="0 0 371 63" fill="none" xmlns="http://www.w3.org/2000/svg">
<path fill-rule="evenodd" clip-rule="evenodd" d="M10.7891 31.8477C11.2891 31.9961 11.7774 31.8477 12.2539 31.3945C12.7266 30.9453 13.1797 30.2969 13.6016 29.4453C14.0274 28.5977 14.4258 27.6016 14.8008 26.4648C15.1758 25.3281 15.5078 24.1328 15.7969 22.8828C16.082 21.6328 16.332 20.3867 16.5469 19.1367C16.7578 17.8867 16.9141 16.7344 17.0156 15.6836C17.1133 14.6367 17.1602 13.7305 17.1445 12.9688C17.1328 12.2031 17.0664 11.6992 16.9414 11.4492C16.7149 11.0469 16.3906 10.9102 15.9649 11.0352L15.7774 10.7344C16.2774 10.3359 16.8516 10.0234 17.5039 9.79688C18.1524 9.57422 18.7891 9.46094 19.4141 9.46094C20.8125 9.46094 21.8516 9.77344 22.5274 10.3984C23.2031 11.0234 23.6211 11.8477 23.7813 12.875C23.9453 13.8984 23.9258 15.0547 23.7266 16.3398C23.5274 17.6289 23.2578 18.9219 22.9219 20.2227C22.582 21.5234 22.2383 22.7773 21.8906 23.9922C21.5391 25.2031 21.3008 26.2461 21.1758 27.1211C21.1016 27.5977 21.0274 28.0898 20.9531 28.6016C20.875 29.1133 20.8399 29.5977 20.8399 30.0469C20.8399 30.4961 20.9024 30.8828 21.0274 31.207C21.1524 31.5312 21.4024 31.7461 21.7774 31.8477C22.3281 31.9961 22.8945 31.7344 23.4844 31.0586C24.0703 30.3828 24.6445 29.4531 25.207 28.2656C25.7695 27.0781 26.3125 25.7109 26.8399 24.1602C27.3633 22.6094 27.8516 21.0234 28.3008 19.3984C28.6758 18.0234 29.0078 16.668 29.293 15.3281C29.582 13.9922 29.8203 12.7852 30.0078 11.7109C30.1953 10.6367 30.3203 9.73047 30.3828 8.99219C30.4453 8.25391 30.4258 7.78516 30.3242 7.58594C30.1758 7.16016 29.8633 7.01172 29.3867 7.13672L29.2383 6.83594C29.7617 6.46094 30.3633 6.16016 31.0391 5.9375C31.711 5.71094 32.3633 5.59766 32.9883 5.59766C34.0117 5.59766 34.8242 6.00391 35.4258 6.81641C36.0235 7.62891 36.4141 8.70703 36.586 10.043C36.7617 11.3789 36.7422 12.9062 36.5313 14.6172C36.3164 16.3281 35.9141 18.0859 35.3125 19.8867C34.7383 21.5859 34.0742 23.3047 33.3242 25.0391C32.5742 26.7773 31.6875 28.3594 30.6641 29.7852C29.6367 31.207 28.4688 32.375 27.1563 33.2891C25.8438 34.2031 24.3633 34.6719 22.7149 34.6953C21.8906 34.7188 21.0703 34.6445 20.2578 34.4688C19.4453 34.2969 18.7031 34.0078 18.0274 33.6094C17.3516 33.207 16.7969 32.6836 16.3594 32.0312C15.9219 31.3828 15.6914 30.582 15.6641 29.6328C15.2383 30.3594 14.8086 31.0312 14.3711 31.6562C13.9336 32.2812 13.4336 32.8203 12.8711 33.2695C12.3086 33.7188 11.6641 34.0781 10.9414 34.3398C10.2149 34.6016 9.37892 34.7188 8.4297 34.6953C7.25392 34.6719 6.28517 34.4688 5.52345 34.0938C4.76173 33.7188 4.17189 33.207 3.76173 32.5586C3.34767 31.9062 3.08986 31.1562 2.9922 30.3086C2.89064 29.457 2.91798 28.5469 3.06642 27.5703L5.4297 11.2227C5.62892 9.79687 5.64064 8.82422 5.46486 8.29688C5.29298 7.77344 5.00392 7.5 4.60548 7.47266C4.1797 7.42578 3.6797 7.69141 3.10548 8.28125C2.53127 8.86719 2.06642 9.72266 1.71877 10.8477C1.21877 12.3984 1.12892 14 1.45314 15.6484L0.441422 15.9102C0.242203 14.9609 0.17189 14 0.23439 13.0234C0.29689 12.0469 0.492203 11.125 0.816422 10.25C1.29298 8.92188 2.06642 7.8125 3.14064 6.91016C4.21486 6.01172 5.60548 5.5625 7.3047 5.5625C8.02736 5.5625 8.71486 5.70703 9.3672 5.99219C10.0156 6.28125 10.5664 6.70703 11.0156 7.26953C11.4649 7.82812 11.7891 8.53516 11.9922 9.38672C12.1914 10.2344 12.2031 11.2344 12.0274 12.3867L9.70314 28.3945C9.65236 28.6719 9.6172 28.9844 9.58986 29.332C9.56642 29.6836 9.58595 30.0273 9.64845 30.3633C9.71095 30.7031 9.82033 31.0078 9.98439 31.2812C10.1485 31.5586 10.4141 31.7461 10.7891 31.8477Z" fill="#ED5B89"/>
<path fill-rule="evenodd" clip-rule="evenodd" d="M155.785 19.5117C155.508 19.6367 155.289 19.8711 155.129 20.2227C154.965 20.5703 154.785 21.0977 154.582 21.7969L150.984 35.1445C150.934 35.3438 150.852 35.6328 150.738 36.0078C150.629 36.3828 150.535 36.6719 150.461 36.8711C150.059 38.0195 149.496 39.0078 148.773 39.832C148.047 40.6562 147.227 41.332 146.316 41.8555C145.402 42.3828 144.422 42.7695 143.371 43.0195C142.324 43.2695 141.273 43.3945 140.223 43.3945C139.398 43.3945 138.59 43.2891 137.805 43.0742C137.016 42.8633 136.316 42.543 135.703 42.1211C135.094 41.6953 134.574 41.1641 134.148 40.5273C133.723 39.8867 133.449 39.1445 133.324 38.293C133.699 37.6445 134.141 37.1875 134.656 36.9258C135.168 36.6641 135.691 36.5508 136.23 36.5898C136.766 36.625 137.313 36.7773 137.859 37.0391C138.41 37.3008 138.934 37.6328 139.434 38.0312C139.387 38.2305 139.309 38.5312 139.211 38.9336C139.109 39.332 139.023 39.7383 138.949 40.1523C138.875 40.5625 138.855 40.9375 138.891 41.2773C138.93 41.6133 139.086 41.8203 139.359 41.8945C139.637 41.9688 139.973 41.9375 140.371 41.8008C140.773 41.6641 141.18 41.375 141.59 40.9375C142.004 40.5 142.418 39.9062 142.828 39.1562C143.242 38.4062 143.598 37.457 143.898 36.3086C143.922 36.207 143.973 36.0195 144.047 35.7461C144.121 35.4688 144.172 35.2695 144.199 35.1445L144.797 32.8594C144.223 33.332 143.543 33.7656 142.754 34.1523C141.965 34.5391 141.098 34.7344 140.148 34.7344C139.047 34.7344 138.105 34.4258 137.316 33.8125C136.531 33.2031 135.93 32.3945 135.516 31.3945C135.34 30.9609 135.199 30.5 135.102 30.0078C134.887 30.5938 134.648 31.1133 134.391 31.5625C133.93 32.375 133.406 33.0312 132.816 33.5312C132.23 34.0312 131.574 34.3828 130.848 34.582C130.125 34.7812 129.336 34.8828 128.488 34.8828C126.461 34.8828 125.02 34.4219 124.156 33.4961C123.293 32.5703 123.051 31.1211 123.426 29.1445C123.5 28.6953 123.613 28.1914 123.762 27.6289C123.914 27.0664 124.07 26.4961 124.23 25.9219C124.395 25.3477 124.555 24.7852 124.719 24.2344C124.883 23.6836 125.023 23.1836 125.148 22.7344C125.352 22.0078 125.332 21.3516 125.094 20.7656C124.855 20.1797 124.5 19.8203 124.023 19.6992C123.5 19.5234 122.895 19.7539 122.207 20.3906C121.52 21.0273 120.914 22.2578 120.387 24.082V24.1602L118.59 30.6445C118.465 31.0703 118.387 31.5781 118.363 32.1641C118.34 32.75 118.574 33.332 119.074 33.9062L118.965 34.5078C118.414 34.582 117.902 34.6406 117.426 34.6758C116.953 34.7148 116.488 34.7188 116.039 34.6953C115.266 34.6719 114.578 34.5625 113.977 34.375C113.375 34.1875 112.902 33.875 112.551 33.4375C112.203 33 111.988 32.4219 111.914 31.6953C111.898 31.5352 111.891 31.3672 111.891 31.1875C111.844 31.2773 111.793 31.3672 111.746 31.4531C111.285 32.2656 110.758 32.9219 110.172 33.4219C109.582 33.9219 108.926 34.2695 108.203 34.4688C107.477 34.6719 106.691 34.7695 105.84 34.7695C103.816 34.7695 102.371 34.3086 101.508 33.3828C101.008 32.8438 100.711 32.1289 100.621 31.2383L100.535 31.3945C100.07 32.2188 99.5469 32.8828 98.9609 33.3828C98.3711 33.8828 97.7149 34.2344 96.9922 34.4336C96.2656 34.6328 95.4805 34.7188 94.6289 34.6953C94.0547 34.6953 93.5039 34.6133 92.9805 34.4531C92.4531 34.2891 91.9727 34.0781 91.5352 33.8125C91.0977 33.5508 90.7422 33.2344 90.4688 32.8594C90.1914 32.4844 90.0156 32.0703 89.9414 31.6211C89.5156 32.6953 88.8281 33.4844 87.8789 33.9844C86.9297 34.4844 85.9063 34.7188 84.8047 34.6953C83.832 34.6953 82.875 34.4688 81.9375 34.0195C81 33.5703 80.2383 32.8945 79.6484 31.9961C79.3086 31.4727 79.0508 30.8789 78.8672 30.207C78.6914 30.6406 78.5 31.0391 78.3008 31.3945C77.8359 32.2188 77.3125 32.8828 76.7266 33.3828C76.1367 33.8828 75.4805 34.2344 74.7578 34.4336C74.0313 34.6328 73.2461 34.7188 72.3945 34.6953C71.8203 34.6953 71.2695 34.6133 70.7461 34.4531C70.2188 34.2891 69.7383 34.0781 69.3008 33.8125C68.8633 33.5508 68.5078 33.2344 68.2344 32.8594C67.957 32.4844 67.7813 32.0703 67.707 31.6211C67.2813 32.6953 66.5938 33.4844 65.6445 33.9844C64.6953 34.4844 63.6719 34.7188 62.5703 34.6953C61.5977 34.6953 60.6406 34.4688 59.7031 34.0195C58.7656 33.5703 58.0039 32.8945 57.4141 31.9961C56.9063 31.2148 56.5742 30.2617 56.4219 29.1406C56.1875 29.5938 55.9102 30.0234 55.5977 30.4219C54.8477 31.3711 53.9649 32.1641 52.9531 32.8008C51.9414 33.4375 50.8281 33.9219 49.6172 34.2461C48.4024 34.5703 47.1719 34.7188 45.9219 34.6953C44.2734 34.6719 42.8359 34.4023 41.6133 33.8906C40.3867 33.375 39.4258 32.6523 38.7227 31.7148C38.0234 30.7773 37.6133 29.6445 37.4883 28.3203C37.3633 26.9961 37.5742 25.5195 38.125 23.8984C38.5234 22.7461 39.0977 21.7578 39.8477 20.9336C40.5977 20.1094 41.4492 19.4336 42.3984 18.9102C43.3477 18.3867 44.3555 17.9961 45.418 17.7461C46.4805 17.4961 47.5352 17.3711 48.5859 17.3711C49.6836 17.3711 50.6719 17.5352 51.5469 17.8594C52.4219 18.1836 53.1602 18.6094 53.7578 19.1367C54.3594 19.6602 54.7969 20.2617 55.0703 20.9336C55.3477 21.6094 55.4453 22.2969 55.3711 22.9961C55.2969 23.6719 55.0352 24.3359 54.5859 24.9844C54.1367 25.6328 53.4727 26.2227 52.5977 26.7461C51.7227 27.2695 50.6289 27.6914 49.3164 28.0039C48.0039 28.3164 46.4492 28.4453 44.6484 28.3945C45.0469 30.1445 46.2852 31.2812 48.3594 31.8086C49.3867 32.082 50.3359 32.125 51.2109 31.9375C52.0859 31.75 52.8672 31.4219 53.5547 30.9453C54.2422 30.4688 54.8281 29.8789 55.3164 29.1641C55.8008 28.457 56.1641 27.6992 56.4141 26.8789C56.5313 25.9648 56.7852 24.9727 57.1719 23.8984C58.1953 21.1719 59.8086 19.293 62.0078 18.2539C64.207 17.2148 66.7813 17.0742 69.7344 17.8242C69.8086 17.8477 69.8867 17.8672 69.9766 17.8789C70.0625 17.8906 70.1445 17.9102 70.2188 17.9336H70.2578L72.0586 11.2227C72.1328 11 72.1953 10.7227 72.2461 10.3984C72.293 10.0742 72.332 9.73438 72.3555 9.38672C72.3828 9.03516 72.3867 8.69922 72.375 8.375C72.3633 8.04688 72.3086 7.78516 72.207 7.58594C72.0313 7.1875 71.7188 7.03516 71.2695 7.13672L71.1211 6.83594C71.6445 6.46094 72.2461 6.16016 72.918 5.9375C73.5938 5.71094 74.2461 5.59766 74.8711 5.59766C75.793 5.59766 76.5508 5.8125 77.1367 6.23828C77.7266 6.66016 78.1563 7.20312 78.4297 7.86719C78.707 8.53125 78.8438 9.26172 78.8438 10.0625C78.8438 10.8594 78.7422 11.6367 78.543 12.3867L74.2305 28.3594C74.1563 28.6328 74.0899 28.9453 74.0274 29.2969C73.9649 29.6445 73.9453 29.9883 73.9688 30.3281C73.9961 30.6641 74.0899 30.9766 74.25 31.2656C74.4141 31.5508 74.668 31.7461 75.0195 31.8477C75.4688 31.9688 75.8945 31.9141 76.293 31.6758C76.6953 31.4375 77.0508 31.1133 77.3633 30.7031C77.6758 30.2891 77.9453 29.8477 78.168 29.3711C78.3477 28.9961 78.4844 28.6641 78.582 28.3672C78.5234 27.0742 78.7969 25.5859 79.4063 23.8984C80.4297 21.1719 82.043 19.293 84.2422 18.2539C86.4414 17.2148 89.0195 17.0742 91.9688 17.8242C92.043 17.8477 92.125 17.8672 92.2109 17.8789C92.2969 17.8906 92.3789 17.9102 92.4531 17.9336H92.4922L94.293 11.2227C94.3672 11 94.4297 10.7227 94.4805 10.3984C94.5313 10.0742 94.5664 9.73438 94.5899 9.38672C94.6172 9.03516 94.6211 8.69922 94.6094 8.375C94.5977 8.04688 94.543 7.78516 94.4414 7.58594C94.2656 7.1875 93.9531 7.03516 93.5039 7.13672L93.3555 6.83594C93.8789 6.46094 94.4805 6.16016 95.1563 5.9375C95.8281 5.71094 96.4805 5.59766 97.1055 5.59766C98.0274 5.59766 98.7852 5.8125 99.3711 6.23828C99.9609 6.66016 100.391 7.20312 100.664 7.86719C100.941 8.53125 101.078 9.26172 101.078 10.0625C101.078 10.8594 100.977 11.6367 100.777 12.3867L96.4649 28.3594C96.3906 28.6328 96.3242 28.9453 96.2617 29.2969C96.1992 29.6445 96.1797 29.9883 96.2031 30.3281C96.2305 30.6641 96.3242 30.9766 96.4844 31.2656C96.6484 31.5508 96.9024 31.7461 97.2539 31.8477C97.7031 31.9688 98.1289 31.9141 98.5274 31.6758C98.9297 31.4375 99.2852 31.1133 99.5977 30.7031C99.9102 30.2891 100.18 29.8477 100.402 29.3711C100.629 28.8945 100.789 28.4844 100.891 28.1328L100.934 28.1406C101.055 27.6094 101.203 27.0469 101.379 26.4453C101.652 25.4961 101.922 24.5781 102.184 23.6914C102.445 22.8047 102.664 22.0078 102.84 21.3086C103.016 20.6094 103.066 20.1094 102.992 19.8086C102.789 19.3828 102.477 19.2344 102.055 19.3594L101.902 19.0977C102.629 18.5234 103.461 18.1367 104.398 17.9336C105.336 17.7344 106.203 17.7344 107.004 17.9336C107.453 18.0586 107.863 18.2305 108.238 18.4414C108.613 18.6523 108.914 18.9648 109.141 19.3789C109.363 19.7891 109.488 20.3164 109.516 20.9531C109.539 21.5898 109.414 22.3711 109.141 23.2969C109.113 23.3711 109.059 23.5703 108.973 23.8984C108.883 24.2227 108.77 24.6211 108.633 25.0977C108.496 25.5703 108.352 26.0703 108.203 26.5977C108.051 27.1211 107.914 27.6133 107.789 28.0781C107.664 28.5391 107.551 28.9414 107.453 29.2773C107.352 29.6133 107.301 29.8086 107.301 29.8594C107.152 30.3828 107.195 30.8203 107.434 31.1719C107.672 31.5195 108.004 31.7578 108.426 31.8828C108.879 32.0078 109.32 31.9531 109.758 31.7148C110.195 31.4766 110.59 31.1562 110.941 30.7578C111.289 30.3594 111.598 29.9258 111.859 29.4648C112.121 29.0039 112.301 28.5977 112.402 28.2461H112.406L113.828 22.9961C113.902 22.7734 113.965 22.4961 114.016 22.1719C114.063 21.8477 114.102 21.5078 114.125 21.1602C114.152 20.8086 114.156 20.4727 114.145 20.1484C114.133 19.8203 114.078 19.5586 113.977 19.3594C113.828 18.9336 113.516 18.7852 113.039 18.9102L112.891 18.6094C113.414 18.2344 114.016 17.9297 114.688 17.6914C115.363 17.4531 116.016 17.3477 116.641 17.3711C117.289 17.3711 117.852 17.4766 118.324 17.6914C118.801 17.9023 119.195 18.1836 119.508 18.5352C119.82 18.8828 120.07 19.2891 120.258 19.7539C120.445 20.2148 120.563 20.7109 120.613 21.2344C120.965 20.5078 121.406 19.8906 121.945 19.3789C122.48 18.8672 123.063 18.4453 123.688 18.1211C124.313 17.7969 124.957 17.5742 125.617 17.4492C126.281 17.3242 126.938 17.2969 127.586 17.3711C128.313 17.4492 128.988 17.6523 129.613 17.9922C130.238 18.3281 130.75 18.7773 131.148 19.3398C131.551 19.9023 131.793 20.5898 131.879 21.4023C131.969 22.2148 131.848 23.1328 131.523 24.1602C131.5 24.2578 131.406 24.6016 131.242 25.1914C131.082 25.7773 130.906 26.4102 130.719 27.082C130.531 27.7578 130.363 28.3906 130.211 28.9766C130.063 29.5664 129.973 29.8945 129.949 29.9727C129.801 30.5195 129.836 30.9688 130.063 31.3203C130.285 31.6719 130.625 31.9062 131.074 32.0312C131.523 32.1562 131.961 32.1016 132.387 31.8633C132.813 31.625 133.203 31.3008 133.566 30.8906C133.93 30.4766 134.238 30.0391 134.488 29.5781C134.68 29.2227 134.828 28.8984 134.93 28.6094C134.918 28.3906 134.914 28.1719 134.918 27.9453C134.93 26.6445 135.199 25.2969 135.723 23.8945C136.547 21.6719 137.777 20.0156 139.418 18.9297C141.055 17.8398 142.973 17.3242 145.172 17.3711C145.871 17.3984 146.586 17.4844 147.309 17.6367C148.035 17.7852 148.711 18.0352 149.332 18.3867C149.984 17.7617 150.832 17.5039 151.883 17.6172C152.934 17.7266 154.281 18.2227 155.934 19.0977L155.785 19.5078V19.5117ZM148.586 19.3984C148.383 19.3477 148.211 19.3242 148.059 19.3242C147.359 19.2969 146.715 19.4297 146.129 19.7148C145.539 20.0039 145.016 20.3906 144.555 20.8789C144.09 21.3672 143.684 21.9219 143.336 22.5469C142.984 23.1719 142.699 23.8086 142.473 24.4609C142.223 25.1328 142.043 25.8477 141.93 26.5977C141.816 27.3477 141.805 28.0391 141.891 28.6758C141.98 29.3164 142.184 29.8789 142.512 30.3633C142.836 30.8516 143.297 31.1719 143.898 31.3203C144.348 31.4219 144.809 31.3438 145.285 31.0938L147.984 21.0078C148.059 20.7109 148.148 20.4219 148.246 20.1484C148.348 19.8711 148.461 19.6211 148.586 19.3984ZM87.168 31.207C87.543 31.3086 87.8672 31.2461 88.1445 31.0195C88.418 30.7969 88.668 30.4961 88.8945 30.1211C89.1172 29.7461 89.3047 29.3281 89.4531 28.8633C89.6055 28.4023 89.7422 27.9727 89.8672 27.5703L92.1914 18.8711C92.1172 18.8711 92.043 18.8672 91.9688 18.8555C91.8906 18.8398 91.8164 18.8359 91.7422 18.8359C91.043 18.8086 90.3984 18.9648 89.8125 19.3047C89.2227 19.6406 88.6992 20.0781 88.2383 20.6172C87.7734 21.1523 87.3672 21.7656 87.0195 22.4531C86.668 23.1406 86.3789 23.8086 86.1563 24.4609C85.9063 25.1328 85.7188 25.8398 85.5938 26.5781C85.4688 27.3164 85.4297 28.0039 85.4805 28.6406C85.5313 29.2773 85.6875 29.8281 85.9492 30.2891C86.2109 30.7539 86.6172 31.0586 87.168 31.207ZM64.9336 31.207C65.3086 31.3086 65.6328 31.2461 65.9063 31.0195C66.1836 30.7969 66.4336 30.4961 66.6563 30.1211C66.8828 29.7461 67.0703 29.3281 67.2188 28.8633C67.3711 28.4023 67.5078 27.9727 67.6328 27.5703L69.957 18.8711C69.8828 18.8711 69.8086 18.8672 69.7344 18.8555C69.6563 18.8398 69.582 18.8359 69.5078 18.8359C68.8086 18.8086 68.1641 18.9648 67.5781 19.3047C66.9883 19.6406 66.4649 20.0781 66 20.6172C65.5391 21.1523 65.1328 21.7656 64.7852 22.4531C64.4336 23.1406 64.1445 23.8086 63.9219 24.4609C63.6719 25.1328 63.4844 25.8398 63.3594 26.5781C63.2344 27.3164 63.1953 28.0039 63.2461 28.6406C63.2969 29.2773 63.4531 29.8281 63.7149 30.2891C63.9766 30.7539 64.3828 31.0586 64.9336 31.207ZM44.5 27.4961C45.2969 27.4727 46.0117 27.2461 46.6367 26.8203C47.2617 26.3945 47.7969 25.8789 48.25 25.2656C48.6992 24.6523 49.0625 23.9922 49.3359 23.2773C49.6094 22.5664 49.7969 21.8984 49.8984 21.2734C49.9961 20.6484 50.0039 20.1172 49.918 19.6797C49.8281 19.2422 49.6602 18.9844 49.4102 18.9102C49.1094 18.8359 48.7656 18.8672 48.3789 19.0039C47.9922 19.1406 47.5859 19.4219 47.1602 19.8477C46.7344 20.2734 46.3242 20.8594 45.9219 21.6094C45.5234 22.3594 45.1719 23.3086 44.875 24.4609C44.7227 25.0352 44.6094 25.5703 44.5352 26.0703C44.4609 26.5703 44.4492 27.0469 44.5 27.4961Z" fill="white"/>
<path fill-rule="evenodd" clip-rule="evenodd" d="M106.941 15.9844C107.004 16.0117 107.797 15.9531 107.922 15.9453L108.406 15.9024C108.559 15.8828 108.711 15.8633 108.871 15.8399C109.41 15.7656 109.941 15.6406 110.469 15.5L110.902 15.3633C111.148 15.2617 111.492 15.1484 111.754 15.0156L112.066 14.8477C112.105 14.8281 112.129 14.8125 112.164 14.793C113.188 14.1953 113.941 13.2813 113.965 12.0508C113.965 11.8906 113.949 11.7656 113.926 11.6172C113.918 11.5352 113.902 11.4805 113.883 11.4063L113.758 11.0117L113.559 10.6406C113.105 9.87891 112.215 9.40235 111.332 9.38282C111.207 9.37891 111.004 9.39063 110.895 9.41016C110.668 9.45704 110.5 9.4922 110.285 9.57813L109.914 9.76563C109.867 9.79298 109.797 9.83985 109.723 9.89454C109.68 9.87501 109.637 9.85548 109.594 9.83985C109.523 9.8086 109.449 9.78126 109.375 9.75782L109.355 9.61329C109.215 8.95704 108.848 8.33594 108.273 7.94532C107.332 7.3086 106.156 7.29688 105.234 7.91798C104.883 8.15626 104.504 8.56251 104.336 8.95704C104.121 9.46876 104.039 9.74219 104.027 10.293C104.02 10.8047 104.105 11.1953 104.234 11.6836L104.461 12.332L104.746 12.9492C104.941 13.3086 105.098 13.6016 105.328 13.9453L106.152 15.082C106.242 15.207 106.887 15.9609 106.941 15.9844Z" fill="#ED5B89"/>
<path fill-rule="evenodd" clip-rule="evenodd" d="M356.691 32.332C356.293 33.7578 355.906 35.1758 355.531 36.5898C355.156 38 354.781 39.418 354.406 40.8438C354.332 41.0703 354.27 41.3516 354.219 41.6875C354.168 42.0234 354.125 42.3672 354.086 42.7188C354.051 43.0703 354.043 43.3984 354.07 43.7109C354.094 44.0234 354.145 44.2812 354.219 44.4805C354.418 44.8555 354.73 45.0078 355.156 44.9297L355.305 45.2695C354.805 45.6953 354.219 46.0234 353.543 46.2617C352.867 46.5 352.219 46.6328 351.594 46.6562C350.645 46.6562 349.883 46.4492 349.305 46.0391C348.73 45.625 348.309 45.0938 348.031 44.4453C347.758 43.793 347.613 43.0742 347.602 42.2891C347.59 41.5 347.668 40.7305 347.844 39.9805L352.344 23.2578C352.395 23.0352 352.449 22.7578 352.512 22.4336C352.574 22.1094 352.617 21.7734 352.645 21.4219C352.668 21.0703 352.676 20.7344 352.664 20.4102C352.648 20.0859 352.594 19.8203 352.492 19.6211C352.293 19.1992 351.98 19.0469 351.555 19.1719L351.406 18.8711C351.93 18.4961 352.531 18.1992 353.207 17.9727C353.883 17.7461 354.531 17.6367 355.156 17.6367C355.781 17.6367 356.324 17.7344 356.785 17.9336C357.25 18.1367 357.645 18.4023 357.969 18.7422C358.293 19.0781 358.543 19.4766 358.719 19.9414C358.895 20.4023 359.02 20.8828 359.094 21.3828C359.668 20.0859 360.512 19.0898 361.625 18.4023C362.734 17.7148 364.055 17.4609 365.578 17.6367C366.504 17.7344 367.266 18.0039 367.867 18.4414C368.465 18.8789 368.934 19.418 369.273 20.0547C369.609 20.6914 369.828 21.4023 369.93 22.1914C370.027 22.9766 370.055 23.7852 370.004 24.6094C369.902 25.8828 369.609 27.1641 369.121 28.4531C368.637 29.7383 367.98 30.8906 367.152 31.9023C366.328 32.9141 365.336 33.7188 364.172 34.3203C363.012 34.9219 361.719 35.1562 360.293 35.0312C359.52 34.9844 358.813 34.7656 358.176 34.375C357.535 33.9883 357.031 33.3945 356.656 32.5938L356.691 32.332ZM361.492 29.6719C361.992 28.6953 362.398 27.6836 362.711 26.6328C363.023 25.5859 363.281 24.5469 363.48 23.5234C363.73 22.0703 363.699 21.0352 363.387 20.4102C363.074 19.7852 362.641 19.5273 362.094 19.6406C361.543 19.7539 360.961 20.1953 360.348 20.9727C359.738 21.7461 359.242 22.7969 358.867 24.1211V24.1602C358.645 25.0352 358.41 25.9141 358.176 26.8008C357.938 27.6914 357.691 28.5703 357.441 29.4453C357.395 29.6953 357.363 29.9531 357.348 30.2148C357.336 30.4766 357.363 30.7188 357.426 30.9453C357.488 31.1719 357.594 31.3711 357.742 31.5469C357.895 31.7188 358.105 31.8477 358.379 31.9219C358.629 31.9961 358.906 31.9844 359.207 31.8828C359.504 31.7812 359.793 31.625 360.066 31.4141C360.344 31.2031 360.605 30.9453 360.855 30.6445C361.105 30.3438 361.316 30.0195 361.492 29.6719ZM341.359 21.5703C341.48 21.1484 341.559 20.6406 341.582 20.0547C341.605 19.4648 341.359 18.8828 340.832 18.3086L340.984 17.7109C341.531 17.6367 342.047 17.5781 342.52 17.543C342.996 17.5039 343.457 17.4961 343.906 17.5234C344.684 17.5469 345.371 17.6523 345.969 17.8398C346.57 18.0273 347.043 18.3398 347.395 18.7773C347.742 19.2148 347.957 19.8047 348.031 20.5391C348.105 21.2773 347.992 22.1836 347.695 23.2578C347.371 24.3828 347.063 25.5039 346.777 26.6133C346.488 27.7266 346.195 28.8477 345.895 29.9727C345.746 30.5195 345.781 30.9688 346.008 31.3203C346.23 31.6719 346.57 31.9062 347.02 32.0312C347.469 32.1562 347.914 32.1016 348.352 31.8633C348.789 31.625 349.18 31.3008 349.531 30.8906C349.883 30.4766 350.188 30.0391 350.449 29.5781C350.711 29.1133 350.895 28.707 350.992 28.3594L351.52 28.4727C351.168 29.7227 350.762 30.7539 350.301 31.5625C349.836 32.375 349.313 33.0312 348.727 33.5312C348.137 34.0312 347.48 34.3828 346.758 34.582C346.031 34.7812 345.246 34.8828 344.395 34.8828C342.77 34.8828 341.52 34.5898 340.645 34C339.77 33.4141 339.281 32.4844 339.184 31.207C338.809 31.8828 338.359 32.4688 337.832 32.9688C337.309 33.4688 336.738 33.8711 336.129 34.1719C335.516 34.4688 334.879 34.6758 334.215 34.7891C333.551 34.9023 332.91 34.9219 332.285 34.8438C331.559 34.7695 330.895 34.5703 330.297 34.2461C329.695 33.9219 329.211 33.4766 328.836 32.9141C328.461 32.3516 328.215 31.6641 328.102 30.8516C327.992 30.0391 328.07 29.1094 328.348 28.0586L329.734 22.9961C329.809 22.7734 329.871 22.4961 329.922 22.1719C329.973 21.8477 330.008 21.5078 330.035 21.1602C330.059 20.8086 330.066 20.4727 330.055 20.1484C330.039 19.8203 329.984 19.5586 329.883 19.3594C329.711 18.9609 329.398 18.8086 328.945 18.9102L328.797 18.6094C329.32 18.2344 329.922 17.9336 330.598 17.7109C331.27 17.4844 331.922 17.3711 332.547 17.3711C333.473 17.3711 334.227 17.5859 334.816 18.0117C335.402 18.4336 335.832 18.9805 336.109 19.6406C336.383 20.3047 336.527 21.0352 336.539 21.8359C336.551 22.6328 336.457 23.4102 336.258 24.1602L334.758 29.4844C334.559 30.207 334.578 30.8633 334.816 31.4531C335.051 32.0391 335.41 32.3945 335.883 32.5195C336.16 32.5938 336.457 32.582 336.781 32.4844C337.109 32.3828 337.434 32.1523 337.758 31.7891C338.082 31.4258 338.402 30.9336 338.715 30.3086C339.027 29.6836 339.309 28.8945 339.559 27.9453C339.809 27.0469 340.047 26.1836 340.27 25.3594C340.469 24.6602 340.664 23.957 340.852 23.2578C341.039 22.5586 341.195 21.9961 341.32 21.5703H341.359ZM328.91 28.4727C328.586 29.7227 328.191 30.7539 327.727 31.5625C327.266 32.375 326.734 33.0312 326.137 33.5312C325.535 34.0312 324.871 34.3828 324.148 34.582C323.422 34.7812 322.637 34.8828 321.785 34.8828C319.785 34.8828 318.355 34.4219 317.492 33.4961C316.629 32.5703 316.375 31.1211 316.723 29.1445C316.797 28.6953 316.91 28.1914 317.063 27.6289C317.211 27.0664 317.375 26.4961 317.547 25.9219C317.723 25.3477 317.891 24.7852 318.055 24.2344C318.219 23.6836 318.359 23.1836 318.484 22.7344C318.688 22.0078 318.668 21.3516 318.43 20.7656C318.191 20.1797 317.836 19.8203 317.359 19.6992C316.813 19.5234 316.188 19.7656 315.484 20.4297C314.785 21.0898 314.176 22.3711 313.648 24.2734V24.1953L311.887 30.6445C311.762 31.0703 311.688 31.5781 311.66 32.1641C311.637 32.75 311.887 33.332 312.41 33.9062L312.262 34.5078C311.738 34.582 311.238 34.6406 310.762 34.6758C310.285 34.7148 309.813 34.7188 309.336 34.6953C308.586 34.6719 307.914 34.5625 307.313 34.375C306.711 34.1875 306.238 33.875 305.887 33.4375C305.539 33 305.324 32.4219 305.25 31.6953C305.176 30.9688 305.273 30.0586 305.551 28.957L310.313 11.2227C310.387 11 310.449 10.7227 310.5 10.3984C310.551 10.0742 310.586 9.73438 310.613 9.38672C310.637 9.03516 310.645 8.69922 310.629 8.375C310.617 8.04688 310.563 7.78516 310.461 7.58594C310.285 7.1875 309.973 7.03516 309.523 7.13672L309.375 6.83594C309.898 6.46094 310.5 6.16016 311.176 5.9375C311.848 5.71094 312.5 5.59766 313.125 5.59766C314.051 5.59766 314.805 5.8125 315.391 6.23828C315.98 6.66016 316.41 7.20312 316.688 7.86719C316.961 8.53125 317.105 9.26172 317.117 10.0625C317.129 10.8594 317.035 11.6367 316.836 12.3867L314.773 19.8867C315.574 18.9336 316.535 18.2461 317.66 17.8242C318.785 17.3984 319.875 17.2461 320.922 17.3711C321.648 17.4492 322.324 17.6523 322.949 17.9922C323.574 18.3281 324.086 18.7773 324.484 19.3398C324.887 19.9023 325.129 20.5898 325.215 21.4023C325.305 22.2148 325.184 23.1328 324.859 24.1602C324.836 24.2344 324.777 24.4141 324.691 24.7031C324.605 24.9922 324.504 25.3398 324.391 25.7539C324.277 26.1641 324.16 26.6094 324.035 27.082C323.91 27.5586 323.793 27.9961 323.68 28.3945C323.566 28.7969 323.465 29.1445 323.379 29.4453C323.293 29.7461 323.246 29.9219 323.246 29.9727C323.098 30.5195 323.141 30.9688 323.379 31.3203C323.617 31.6719 323.949 31.9062 324.371 32.0312C324.824 32.1562 325.266 32.1016 325.703 31.8633C326.141 31.625 326.535 31.3008 326.883 30.8906C327.234 30.4766 327.539 30.0391 327.805 29.5781C328.066 29.1133 328.246 28.707 328.348 28.3594L328.91 28.4727ZM295.84 29.332C295.34 28.6328 294.84 27.8711 294.34 27.0469C293.84 26.2227 293.34 25.4336 292.84 24.6836C292.113 23.5586 291.801 22.5156 291.902 21.5547C292 20.5898 292.363 19.7539 292.988 19.043C293.613 18.3281 294.438 17.7734 295.465 17.3711C296.488 16.9727 297.574 16.7734 298.727 16.7734C299.551 16.7734 300.355 16.9023 301.145 17.168C301.93 17.4297 302.637 17.8164 303.262 18.3281C303.887 18.8398 304.395 19.4531 304.781 20.168C305.168 20.8789 305.363 21.6836 305.363 22.5859L304.875 22.7344C304.75 21.8086 304.477 21.0234 304.051 20.3711C303.625 19.7227 303.137 19.2227 302.59 18.8711C302.039 18.5234 301.48 18.3242 300.918 18.2734C300.355 18.2227 299.902 18.3359 299.551 18.6094C299.125 18.9336 298.906 19.4531 298.895 20.168C298.883 20.8789 299.188 21.6719 299.813 22.5469C300.238 23.1953 300.727 23.957 301.277 24.8359C301.824 25.7109 302.324 26.5078 302.773 27.2344C303.477 28.332 303.762 29.3398 303.637 30.2539C303.512 31.1641 303.113 31.9531 302.438 32.6133C301.762 33.2773 300.895 33.7891 299.832 34.1523C298.77 34.5156 297.664 34.6953 296.512 34.6953C295.738 34.6953 294.988 34.5898 294.266 34.375C293.539 34.1641 292.902 33.8125 292.352 33.3281C291.801 32.8398 291.359 32.2031 291.02 31.4141C290.684 30.6289 290.516 29.6445 290.516 28.4727L291.152 28.3594C291.152 29.4844 291.34 30.4023 291.715 31.1133C292.09 31.8281 292.531 32.3594 293.047 32.707C293.559 33.0586 294.09 33.2461 294.641 33.2695C295.188 33.2969 295.641 33.1836 295.988 32.9336C296.414 32.6328 296.637 32.1836 296.664 31.582C296.688 30.9844 296.402 30.2344 295.801 29.332H295.84ZM279.34 30.2344C279.34 30.0352 279.352 29.8281 279.379 29.6133C279.402 29.4023 279.441 29.1953 279.492 28.9961C279.641 28.2227 279.859 27.332 280.148 26.332C280.434 25.3359 280.715 24.3672 280.992 23.4297C281.266 22.4922 281.492 21.6484 281.664 20.8984C281.84 20.1484 281.891 19.6211 281.816 19.3242C281.691 19.0234 281.492 18.8711 281.215 18.8711C280.465 18.9492 279.797 19.2148 279.211 19.6797C278.621 20.1406 278.098 20.7031 277.637 21.3672C277.172 22.0273 276.785 22.7422 276.473 23.5039C276.16 24.2656 275.918 24.9727 275.742 25.6211C275.242 27.4219 275.105 28.8164 275.328 29.8008C275.555 30.7891 275.992 31.4219 276.641 31.6953C277.215 31.9219 277.773 31.8945 278.309 31.6211C278.848 31.3438 279.191 30.8828 279.34 30.2344ZM283.691 18.3086C284.738 18.2344 285.629 18.3594 286.352 18.6836C287.203 19.0352 287.746 19.6484 287.984 20.5234C288.223 21.3984 288.141 22.4961 287.738 23.8203C287.715 23.9219 287.613 24.2734 287.441 24.8711C287.266 25.4727 287.082 26.1211 286.895 26.8203C286.707 27.5195 286.535 28.1719 286.371 28.7695C286.207 29.3711 286.113 29.707 286.09 29.7852C285.941 30.332 285.977 30.7852 286.203 31.1328C286.426 31.4844 286.766 31.7188 287.215 31.8477C287.664 31.9688 288.09 31.9062 288.488 31.6562C288.891 31.4062 289.254 31.0703 289.578 30.6445C289.902 30.2188 290.176 29.7695 290.402 29.2969C290.629 28.8203 290.789 28.4102 290.891 28.0586L291.715 28.2852C291.363 29.5352 290.957 30.5625 290.496 31.3789C290.035 32.1875 289.508 32.8438 288.922 33.3438C288.332 33.8438 287.676 34.1953 286.953 34.3945C286.227 34.5938 285.441 34.6953 284.59 34.6953C282.039 34.6953 280.414 33.957 279.715 32.4844C279.141 33.1836 278.449 33.7344 277.637 34.1328C276.824 34.5312 275.855 34.7344 274.73 34.7344C273.453 34.7344 272.391 34.4336 271.543 33.832C270.691 33.2344 270.035 32.4648 269.574 31.5273C269.109 30.5898 268.844 29.5508 268.766 28.4141C268.691 27.2773 268.793 26.1719 269.066 25.0977C269.516 23.5234 270.141 22.1836 270.941 21.0859C271.742 19.9844 272.699 19.1289 273.809 18.5156C274.922 17.9023 276.16 17.5352 277.523 17.4102C278.883 17.2852 280.34 17.4219 281.891 17.8242C282.191 17.9219 282.492 18.0234 282.789 18.1211C283.09 18.2227 283.379 18.2852 283.652 18.3086H283.691Z" fill="white"/>
<path fill-rule="evenodd" clip-rule="evenodd" d="M267.867 27.2695C267.891 27.9727 267.797 28.7539 267.586 29.6133C267.375 30.4766 267.02 31.2812 266.52 32.0312C266.02 32.7812 265.363 33.4141 264.551 33.9258C263.738 34.4375 262.742 34.6953 261.57 34.6953C260.867 34.6953 260.195 34.5703 259.543 34.3203C258.895 34.0703 258.312 33.6875 257.801 33.1758C257.289 32.6641 256.863 32.0078 256.527 31.207C256.188 30.4102 255.98 29.457 255.906 28.3594C255.883 27.9102 255.844 27.3477 255.793 26.6719C255.742 25.9961 255.668 25.1602 255.57 24.1602C255.469 23.1602 255.352 21.9922 255.215 20.6523C255.074 19.3164 254.918 17.7852 254.746 16.0586C254.469 16.6602 254.164 17.3867 253.824 18.2344C253.488 19.0859 253.133 19.9922 252.758 20.9531C252.383 21.9141 252 22.8984 251.613 23.8984C251.227 24.8945 250.844 25.8516 250.469 26.7656C250.094 27.6758 249.746 28.5156 249.422 29.2773C249.094 30.0391 248.809 30.6602 248.559 31.1328C248.309 31.6094 248.047 32.0586 247.77 32.4844C247.496 32.9062 247.207 33.2812 246.906 33.6094C246.609 33.9336 246.309 34.1953 246.008 34.3945C245.707 34.5938 245.395 34.6953 245.07 34.6953C244.422 34.6953 243.895 34.4141 243.496 33.8516C243.098 33.2891 242.77 32.5312 242.52 31.582C242.473 31.4336 242.391 30.8828 242.277 29.9336C242.164 28.9844 242.035 27.7891 241.883 26.3516C241.734 24.9141 241.566 23.3086 241.379 21.5352C241.191 19.7617 241.02 17.9727 240.871 16.1719C240.645 16.7227 240.379 17.4102 240.066 18.2344C239.754 19.0586 239.402 19.9609 239.016 20.9336C238.629 21.9102 238.215 22.9219 237.777 23.9727C237.34 25.0195 236.871 26.0469 236.371 27.0469C235.848 28.0977 235.285 29.082 234.684 30.0078C234.086 30.9336 233.465 31.7461 232.828 32.4453C232.191 33.1445 231.527 33.6953 230.84 34.0938C230.152 34.4961 229.449 34.6953 228.723 34.6953C227.973 34.6953 227.223 34.5781 226.473 34.3398C225.723 34.1016 225.047 33.7578 224.449 33.3086C223.848 32.8594 223.336 32.3086 222.91 31.6562C222.828 31.5312 222.75 31.3984 222.68 31.2617C222.168 30.6875 221.859 29.9297 221.859 29.0977C221.859 27.293 223.324 25.8281 225.129 25.8281C226.934 25.8281 228.398 27.293 228.398 29.0977C228.398 29.8047 228.172 30.457 227.793 30.9922L227.75 31.2266C227.672 31.6406 227.652 32.0156 227.691 32.3516C227.73 32.6875 227.871 32.8945 228.121 32.9688C228.449 33.0703 228.824 33.0273 229.246 32.8398C229.672 32.6523 230.078 32.4062 230.465 32.1094C230.855 31.8086 231.203 31.5 231.516 31.1875C231.828 30.8789 232.047 30.6328 232.172 30.457C232.746 29.6836 233.336 28.707 233.934 27.5352C234.535 26.3594 235.133 25.0859 235.734 23.7109C236.336 22.3359 236.93 20.9023 237.516 19.418C238.102 17.9297 238.664 16.4961 239.203 15.1211C239.738 13.75 240.246 12.4727 240.723 11.2969C241.195 10.125 241.621 9.14844 241.996 8.375C242.422 7.5 242.871 6.81641 243.348 6.33203C243.82 5.84375 244.348 5.59766 244.922 5.59766C245.344 5.59766 245.77 5.84375 246.195 6.33203C246.621 6.81641 246.895 7.51172 247.02 8.41016C247.047 8.5625 247.094 8.96875 247.172 9.62891C247.246 10.293 247.332 11.1172 247.434 12.1055C247.531 13.0938 247.641 14.1992 247.75 15.4219C247.863 16.6484 247.977 17.8867 248.09 19.1367C248.203 20.3867 248.301 21.6094 248.391 22.8086C248.477 24.0078 248.547 25.0859 248.594 26.0352C249.094 24.8594 249.652 23.4727 250.266 21.8711C250.875 20.2734 251.512 18.6211 252.176 16.9219C252.84 15.2227 253.52 13.5547 254.219 11.918C254.918 10.2812 255.633 8.82422 256.355 7.54688C257.082 6.25 257.805 5.59766 258.531 5.59766C258.906 5.59766 259.238 5.75 259.523 6.05078C259.812 6.34766 260.082 6.86328 260.332 7.58594C260.48 8.11328 260.637 8.86719 260.801 9.85547C260.961 10.8438 261.117 11.9688 261.27 13.2305C261.418 14.4922 261.57 15.8359 261.719 17.2617C261.867 18.6836 262.02 20.0781 262.168 21.4414C262.32 22.8047 262.473 24.082 262.637 25.2852C262.801 26.4844 262.969 27.4961 263.145 28.3203C263.316 29.2227 263.543 29.8789 263.816 30.2891C264.094 30.7031 264.379 30.9375 264.68 31.0039C264.98 31.0625 265.273 30.9844 265.562 30.7578C265.848 30.5352 266.113 30.2266 266.348 29.8398C266.586 29.4531 266.781 29.0195 266.93 28.5469C267.078 28.0703 267.156 27.6211 267.156 27.1953L267.867 27.2695Z" fill="#ED5B89"/>
<path fill-rule="evenodd" clip-rule="evenodd" d="M183.68 25.1875C184.156 25.4648 184.316 26.0781 184.039 26.5547C183.758 27.0313 183.148 27.1914 182.672 26.9141C179.402 25.0039 176.812 22.5781 174.906 19.6367C173.004 16.707 171.789 13.2773 171.262 9.35157C171.191 8.80469 171.578 8.30469 172.121 8.23438C172.387 8.19922 172.637 8.26954 172.836 8.41407C174.516 9.625 176.207 10.5586 177.906 11.2031C179.355 11.7539 180.812 12.1016 182.281 12.2461C183.852 7.72657 186.426 4.46094 189.219 2.55079C190.578 1.6211 191.992 1.00782 193.383 0.714848C194.809 0.417973 196.203 0.464847 197.477 0.863285C198.98 1.33204 200.301 2.28516 201.297 3.73829C201.312 3.76172 201.328 3.78907 201.344 3.81641C205.012 9.71094 203.75 17.4453 197.555 27.0156C197.258 27.4766 196.641 27.6094 196.176 27.3086C195.715 27.0078 195.586 26.3906 195.883 25.9297C201.625 17.0625 202.879 10.0391 199.645 4.85938C198.918 3.80079 197.961 3.10547 196.883 2.76954C195.934 2.47266 194.879 2.44141 193.789 2.66797C192.656 2.90625 191.484 3.41797 190.344 4.19922C187.738 5.98438 185.332 9.14454 183.941 13.5977H183.937C183.809 14.0195 183.398 14.3203 182.934 14.2969C181 14.1953 179.09 13.7852 177.203 13.0703C176.004 12.6133 174.812 12.0352 173.633 11.3281C174.223 14.0313 175.207 16.4375 176.578 18.5508C178.309 21.2188 180.676 23.4336 183.68 25.1875Z" fill="white"/>
<path fill-rule="evenodd" clip-rule="evenodd" d="M169.562 0.71094C170.07 0.496096 170.656 0.730471 170.875 1.23828C171.09 1.7461 170.852 2.33203 170.344 2.54688C168.391 3.38282 166.953 4.53516 165.996 5.92578C164.93 7.46485 164.434 9.32032 164.453 11.3867C164.473 13.5156 165.039 15.8711 166.094 18.3398C168.805 24.6797 174.707 31.6445 182.855 37.3906C184.355 36.5117 185.574 35.5234 186.512 34.4297C187.535 33.2344 188.223 31.9102 188.582 30.457C188.711 29.9219 189.25 29.5938 189.785 29.7227C190.16 29.8125 190.434 30.1055 190.52 30.457C190.875 31.9102 191.566 33.2344 192.586 34.4297C193.523 35.5234 194.746 36.5078 196.242 37.3906C204.395 31.6445 210.293 24.6797 213.004 18.3398C214.059 15.8711 214.625 13.5156 214.645 11.3828C214.664 9.32032 214.168 7.46485 213.105 5.92188C212.145 4.53516 210.707 3.38282 208.754 2.54688C208.246 2.33203 208.008 1.7461 208.227 1.23828C208.441 0.730471 209.027 0.496096 209.535 0.71094C211.852 1.69922 213.57 3.09375 214.746 4.79297C216.051 6.67969 216.66 8.92969 216.637 11.4023C216.617 13.8047 215.996 16.4219 214.84 19.1211C211.934 25.9141 205.594 33.3555 196.867 39.3867C196.566 39.5938 196.164 39.625 195.824 39.4414C193.859 38.3672 192.273 37.1289 191.07 35.7266C190.469 35.0195 189.961 34.2773 189.551 33.4922C189.137 34.2773 188.629 35.0195 188.027 35.7266C186.832 37.1211 185.258 38.3516 183.309 39.4219C182.984 39.6133 182.562 39.6133 182.23 39.3867C173.504 33.3555 167.164 25.9141 164.258 19.1211C163.102 16.4219 162.484 13.8047 162.461 11.4023C162.441 8.92969 163.047 6.67969 164.355 4.79297C165.527 3.09375 167.25 1.69922 169.562 0.71094Z" fill="#ED5B89"/>
<path fill-rule="evenodd" clip-rule="evenodd" d="M202.262 53.5898H203.117L205.078 58.25L207.129 53.5898H207.281L209.34 58.25L211.34 53.5898H212.191L209.41 60.0195H209.25L207.207 55.418L205.156 60.0195H204.992L202.262 53.5898ZM219.723 57.8867L220.422 58.2578C220.191 58.7031 219.93 59.0625 219.629 59.3359C219.328 59.6094 218.988 59.8203 218.613 59.9609C218.238 60.1055 217.813 60.1758 217.34 60.1758C216.285 60.1758 215.465 59.832 214.871 59.1484C214.277 58.4609 213.98 57.6875 213.98 56.8242C213.98 56.0117 214.234 55.2852 214.738 54.6484C215.371 53.8398 216.227 53.4336 217.293 53.4336C218.395 53.4336 219.273 53.8477 219.93 54.6797C220.395 55.2617 220.633 55.9922 220.641 56.8711H214.828C214.844 57.6172 215.086 58.2266 215.547 58.6992C216.012 59.1758 216.586 59.4141 217.266 59.4141C217.594 59.4141 217.914 59.3555 218.227 59.2461C218.535 59.1328 218.801 58.9805 219.02 58.793C219.234 58.6055 219.473 58.3047 219.723 57.8867ZM219.734 56.1562C219.621 55.7148 219.461 55.3633 219.25 55.1016C219.035 54.8359 218.754 54.625 218.406 54.4609C218.055 54.3008 217.688 54.2188 217.305 54.2188C216.668 54.2188 216.125 54.4219 215.668 54.8281C215.336 55.125 215.082 55.5664 214.914 56.1562H219.734ZM232.863 54.9258L232.207 55.3359C231.641 54.582 230.863 54.207 229.879 54.207C229.09 54.207 228.438 54.4609 227.918 54.9609C227.398 55.4648 227.137 56.0742 227.137 56.793C227.137 57.2617 227.258 57.6992 227.496 58.1133C227.734 58.5234 228.066 58.8437 228.48 59.0742C228.898 59.3008 229.367 59.4141 229.883 59.4141C230.832 59.4141 231.609 59.0391 232.207 58.2891L232.863 58.7188C232.555 59.1836 232.141 59.5391 231.625 59.7969C231.102 60.0508 230.512 60.1758 229.848 60.1758C228.828 60.1758 227.98 59.8555 227.309 59.2109C226.637 58.5664 226.305 57.7812 226.305 56.8594C226.305 56.2383 226.461 55.6602 226.773 55.1289C227.09 54.5937 227.52 54.1797 228.07 53.8828C228.621 53.582 229.234 53.4336 229.914 53.4336C230.34 53.4336 230.754 53.4961 231.148 53.6289C231.547 53.7578 231.883 53.9258 232.16 54.1328C232.438 54.3398 232.672 54.6055 232.863 54.9258ZM235.238 53.5898H236.086V54.5312C236.34 54.1602 236.605 53.8867 236.887 53.7031C237.164 53.5234 237.457 53.4336 237.762 53.4336C237.992 53.4336 238.234 53.5078 238.496 53.6523L238.062 54.3438C237.891 54.2695 237.746 54.2305 237.625 54.2305C237.348 54.2305 237.082 54.3437 236.828 54.5703C236.57 54.7969 236.375 55.1523 236.238 55.625C236.137 55.9922 236.086 56.7344 236.086 57.8477V60.0195H235.238V53.5898ZM245.727 57.8867L246.422 58.2578C246.195 58.7031 245.93 59.0625 245.629 59.3359C245.328 59.6094 244.992 59.8203 244.617 59.9609C244.238 60.1055 243.816 60.1758 243.34 60.1758C242.285 60.1758 241.465 59.832 240.871 59.1484C240.281 58.4609 239.984 57.6875 239.984 56.8242C239.984 56.0117 240.234 55.2852 240.738 54.6484C241.375 53.8398 242.227 53.4336 243.293 53.4336C244.395 53.4336 245.273 53.8477 245.93 54.6797C246.395 55.2617 246.633 55.9922 246.641 56.8711H240.832C240.848 57.6172 241.086 58.2266 241.547 58.6992C242.012 59.1758 242.586 59.4141 243.266 59.4141C243.594 59.4141 243.914 59.3555 244.227 59.2461C244.535 59.1328 244.801 58.9805 245.02 58.793C245.238 58.6055 245.473 58.3047 245.727 57.8867ZM245.734 56.1562C245.621 55.7148 245.461 55.3633 245.25 55.1016C245.035 54.8359 244.754 54.625 244.406 54.4609C244.059 54.3008 243.691 54.2188 243.305 54.2188C242.672 54.2188 242.125 54.4219 241.668 54.8281C241.336 55.125 241.086 55.5664 240.914 56.1562H245.734ZM255.672 53.5898V60.0195H254.848V58.9141C254.5 59.3359 254.113 59.6523 253.684 59.8633C253.254 60.0703 252.781 60.1758 252.27 60.1758C251.363 60.1758 250.586 59.8477 249.941 59.1914C249.297 58.5312 248.977 57.7305 248.977 56.7852C248.977 55.8633 249.301 55.0742 249.953 54.418C250.598 53.7617 251.379 53.4336 252.293 53.4336C252.82 53.4336 253.297 53.543 253.727 53.7656C254.148 53.9883 254.527 54.3242 254.848 54.7734V53.5898H255.672ZM252.359 54.2305C251.898 54.2305 251.473 54.3437 251.086 54.5703C250.695 54.7969 250.387 55.1133 250.156 55.5195C249.926 55.9258 249.812 56.3594 249.812 56.8164C249.812 57.2656 249.926 57.6953 250.16 58.1094C250.391 58.5195 250.703 58.8398 251.094 59.0703C251.484 59.3008 251.906 59.4141 252.352 59.4141C252.801 59.4141 253.23 59.3008 253.637 59.0742C254.043 58.8437 254.352 58.5391 254.57 58.1484C254.789 57.7617 254.898 57.3242 254.898 56.8359C254.898 56.0977 254.652 55.4766 254.164 54.9805C253.676 54.4805 253.074 54.2305 252.359 54.2305ZM259.355 51.1953H260.18V53.5898H261.484V54.3047H260.18V60.0195H259.355V54.3047H258.23V53.5898H259.355V51.1953ZM269.273 57.8867L269.973 58.2578C269.742 58.7031 269.477 59.0625 269.176 59.3359C268.875 59.6094 268.539 59.8203 268.164 59.9609C267.785 60.1055 267.363 60.1758 266.887 60.1758C265.836 60.1758 265.012 59.832 264.422 59.1484C263.828 58.4609 263.531 57.6875 263.531 56.8242C263.531 56.0117 263.781 55.2852 264.285 54.6484C264.922 53.8398 265.773 53.4336 266.84 53.4336C267.941 53.4336 268.82 53.8477 269.477 54.6797C269.941 55.2617 270.18 55.9922 270.188 56.8711H264.379C264.395 57.6172 264.633 58.2266 265.098 58.6992C265.559 59.1758 266.133 59.4141 266.812 59.4141C267.141 59.4141 267.461 59.3555 267.773 59.2461C268.086 59.1328 268.348 58.9805 268.566 58.793C268.785 58.6055 269.02 58.3047 269.273 57.8867ZM269.281 56.1562C269.168 55.7148 269.008 55.3633 268.797 55.1016C268.582 54.8359 268.301 54.625 267.953 54.4609C267.605 54.3008 267.238 54.2188 266.852 54.2188C266.219 54.2188 265.672 54.4219 265.219 54.8281C264.883 55.125 264.633 55.5664 264.461 56.1562H269.281ZM275.477 53.5898H276.336L278.555 58.5195L280.707 53.5898H281.59L277.754 62.3672H276.871L278.129 59.4922L275.477 53.5898ZM286.809 53.4336C287.801 53.4336 288.621 53.7891 289.273 54.5078C289.867 55.1602 290.164 55.9297 290.164 56.8242C290.164 57.7188 289.852 58.5 289.223 59.1719C288.598 59.8438 287.789 60.1758 286.809 60.1758C285.82 60.1758 285.012 59.8438 284.387 59.1719C283.758 58.5 283.445 57.7188 283.445 56.8242C283.445 55.9336 283.742 55.1641 284.336 54.5117C284.988 53.793 285.812 53.4336 286.809 53.4336ZM286.805 54.2461C286.117 54.2461 285.527 54.4961 285.031 55.0039C284.539 55.5078 284.293 56.125 284.293 56.8398C284.293 57.3047 284.406 57.7344 284.629 58.1367C284.855 58.5352 285.16 58.8438 285.543 59.0625C285.926 59.2812 286.348 59.3906 286.805 59.3906C287.262 59.3906 287.684 59.2812 288.066 59.0625C288.449 58.8438 288.754 58.5352 288.98 58.1367C289.203 57.7344 289.316 57.3047 289.316 56.8398C289.316 56.125 289.066 55.5078 288.57 55.0039C288.078 54.4961 287.488 54.2461 286.805 54.2461ZM292.68 53.5898H293.504V56.5898C293.504 57.3242 293.543 57.8242 293.621 58.1016C293.738 58.4961 293.969 58.8086 294.301 59.0352C294.633 59.2617 295.031 59.3789 295.496 59.3789C295.957 59.3789 296.348 59.2656 296.672 59.043C296.992 58.8203 297.215 58.5312 297.336 58.168C297.422 57.918 297.461 57.3945 297.461 56.5898V53.5898H298.309V56.7422C298.309 57.6289 298.207 58.293 298 58.7422C297.793 59.1914 297.48 59.543 297.066 59.7969C296.648 60.0508 296.129 60.1758 295.5 60.1758C294.875 60.1758 294.352 60.0508 293.934 59.7969C293.512 59.543 293.195 59.1875 292.992 58.7344C292.785 58.2812 292.68 57.5977 292.68 56.6836V53.5898ZM310.848 54.9258L310.191 55.3359C309.625 54.582 308.848 54.207 307.863 54.207C307.074 54.207 306.422 54.4609 305.902 54.9609C305.383 55.4648 305.121 56.0742 305.121 56.793C305.121 57.2617 305.242 57.6992 305.48 58.1133C305.719 58.5234 306.051 58.8437 306.465 59.0742C306.883 59.3008 307.352 59.4141 307.867 59.4141C308.816 59.4141 309.594 59.0391 310.191 58.2891L310.848 58.7188C310.539 59.1836 310.125 59.5391 309.609 59.7969C309.086 60.0508 308.496 60.1758 307.832 60.1758C306.812 60.1758 305.965 59.8555 305.293 59.2109C304.621 58.5664 304.289 57.7812 304.289 56.8594C304.289 56.2383 304.445 55.6602 304.758 55.1289C305.07 54.5937 305.504 54.1797 306.055 53.8828C306.605 53.582 307.219 53.4336 307.898 53.4336C308.324 53.4336 308.738 53.4961 309.133 53.6289C309.527 53.7578 309.867 53.9258 310.145 54.1328C310.422 54.3398 310.656 54.6055 310.848 54.9258ZM318.965 57.8867L319.664 58.2578C319.434 58.7031 319.168 59.0625 318.867 59.3359C318.566 59.6094 318.23 59.8203 317.855 59.9609C317.477 60.1055 317.055 60.1758 316.582 60.1758C315.527 60.1758 314.707 59.832 314.113 59.1484C313.52 58.4609 313.223 57.6875 313.223 56.8242C313.223 56.0117 313.477 55.2852 313.977 54.6484C314.613 53.8398 315.465 53.4336 316.535 53.4336C317.633 53.4336 318.512 53.8477 319.168 54.6797C319.637 55.2617 319.875 55.9922 319.883 56.8711H314.07C314.086 57.6172 314.328 58.2266 314.789 58.6992C315.254 59.1758 315.824 59.4141 316.504 59.4141C316.836 59.4141 317.156 59.3555 317.465 59.2461C317.777 59.1328 318.043 58.9805 318.258 58.793C318.477 58.6055 318.715 58.3047 318.965 57.8867ZM318.973 56.1562C318.863 55.7148 318.699 55.3633 318.488 55.1016C318.273 54.8359 317.996 54.625 317.645 54.4609C317.297 54.3008 316.93 54.2188 316.547 54.2188C315.91 54.2188 315.367 54.4219 314.91 54.8281C314.574 55.125 314.324 55.5664 314.152 56.1562H318.973ZM322.387 51.1094H323.211V60.0195H322.387V51.1094ZM331.461 57.8867L332.16 58.2578C331.93 58.7031 331.664 59.0625 331.363 59.3359C331.062 59.6094 330.727 59.8203 330.352 59.9609C329.973 60.1055 329.551 60.1758 329.074 60.1758C328.023 60.1758 327.199 59.832 326.609 59.1484C326.016 58.4609 325.719 57.6875 325.719 56.8242C325.719 56.0117 325.969 55.2852 326.473 54.6484C327.109 53.8398 327.961 53.4336 329.027 53.4336C330.129 53.4336 331.008 53.8477 331.664 54.6797C332.129 55.2617 332.367 55.9922 332.375 56.8711H326.566C326.582 57.6172 326.82 58.2266 327.285 58.6992C327.746 59.1758 328.32 59.4141 329 59.4141C329.328 59.4141 329.652 59.3555 329.961 59.2461C330.273 59.1328 330.535 58.9805 330.754 58.793C330.973 58.6055 331.207 58.3047 331.461 57.8867ZM331.469 56.1562C331.359 55.7148 331.195 55.3633 330.984 55.1016C330.77 54.8359 330.492 54.625 330.141 54.4609C329.793 54.3008 329.426 54.2188 329.043 54.2188C328.406 54.2188 327.859 54.4219 327.406 54.8281C327.07 55.125 326.82 55.5664 326.648 56.1562H331.469ZM335.062 60.0195V51.1094H335.887V54.7031C336.234 54.2773 336.621 53.9609 337.051 53.75C337.48 53.5391 337.949 53.4336 338.461 53.4336C339.371 53.4336 340.148 53.7617 340.793 54.4219C341.434 55.0781 341.758 55.875 341.758 56.8164C341.758 57.7422 341.434 58.5352 340.785 59.1914C340.133 59.8477 339.352 60.1758 338.438 60.1758C337.914 60.1758 337.441 60.0664 337.016 59.8438C336.59 59.6211 336.215 59.2852 335.887 58.8359V60.0195H335.062ZM338.379 59.3789C338.836 59.3789 339.262 59.2656 339.648 59.0391C340.039 58.8164 340.348 58.4961 340.578 58.0898C340.809 57.6836 340.922 57.2539 340.922 56.8008C340.922 56.3437 340.809 55.9102 340.574 55.5C340.344 55.0898 340.031 54.7695 339.641 54.5391C339.25 54.3125 338.832 54.1953 338.387 54.1953C337.938 54.1953 337.508 54.3125 337.102 54.5391C336.695 54.7695 336.383 55.0781 336.164 55.4648C335.945 55.8516 335.84 56.2891 335.84 56.7734C335.84 57.5156 336.082 58.1367 336.574 58.6328C337.062 59.1289 337.664 59.3789 338.379 59.3789ZM344.051 53.5898H344.895V54.5312C345.148 54.1602 345.414 53.8867 345.695 53.7031C345.977 53.5234 346.27 53.4336 346.57 53.4336C346.801 53.4336 347.047 53.5078 347.305 53.6523L346.875 54.3438C346.699 54.2695 346.555 54.2305 346.438 54.2305C346.16 54.2305 345.895 54.3437 345.637 54.5703C345.379 54.7969 345.184 55.1523 345.051 55.625C344.945 55.9922 344.895 56.7344 344.895 57.8477V60.0195H344.051V53.5898ZM355.512 53.5898V60.0195H354.688V58.9141C354.344 59.3359 353.953 59.6523 353.523 59.8633C353.094 60.0703 352.621 60.1758 352.109 60.1758C351.203 60.1758 350.426 59.8477 349.781 59.1914C349.137 58.5312 348.816 57.7305 348.816 56.7852C348.816 55.8633 349.141 55.0742 349.793 54.418C350.441 53.7617 351.223 53.4336 352.133 53.4336C352.66 53.4336 353.137 53.543 353.566 53.7656C353.992 53.9883 354.367 54.3242 354.688 54.7734V53.5898H355.512ZM352.199 54.2305C351.738 54.2305 351.312 54.3437 350.926 54.5703C350.535 54.7969 350.227 55.1133 349.996 55.5195C349.77 55.9258 349.652 56.3594 349.652 56.8164C349.652 57.2656 349.77 57.6953 350 58.1094C350.23 58.5195 350.543 58.8398 350.934 59.0703C351.324 59.3008 351.746 59.4141 352.195 59.4141C352.645 59.4141 353.074 59.3008 353.477 59.0742C353.883 58.8437 354.191 58.5391 354.41 58.1484C354.629 57.7617 354.738 57.3242 354.738 56.8359C354.738 56.0977 354.492 55.4766 354.004 54.9805C353.516 54.4805 352.914 54.2305 352.199 54.2305ZM359.195 51.1953H360.02V53.5898H361.324V54.3047H360.02V60.0195H359.195V54.3047H358.07V53.5898H359.195V51.1953ZM369.113 57.8867L369.812 58.2578C369.582 58.7031 369.316 59.0625 369.016 59.3359C368.715 59.6094 368.379 59.8203 368.004 59.9609C367.625 60.1055 367.203 60.1758 366.727 60.1758C365.676 60.1758 364.855 59.832 364.262 59.1484C363.668 58.4609 363.371 57.6875 363.371 56.8242C363.371 56.0117 363.621 55.2852 364.125 54.6484C364.762 53.8398 365.613 53.4336 366.684 53.4336C367.781 53.4336 368.66 53.8477 369.316 54.6797C369.785 55.2617 370.02 55.9922 370.027 56.8711H364.219C364.234 57.6172 364.473 58.2266 364.938 58.6992C365.402 59.1758 365.973 59.4141 366.652 59.4141C366.984 59.4141 367.305 59.3555 367.613 59.2461C367.926 59.1328 368.188 58.9805 368.406 58.793C368.625 58.6055 368.859 58.3047 369.113 57.8867ZM369.121 56.1562C369.012 55.7148 368.848 55.3633 368.637 55.1016C368.422 54.8359 368.145 54.625 367.793 54.4609C367.445 54.3008 367.078 54.2188 366.695 54.2188C366.059 54.2188 365.516 54.4219 365.059 54.8281C364.723 55.125 364.473 55.5664 364.301 56.1562H369.121Z" fill="white"/>
</svg>
